<svg width="136" height="136" viewBox="0 0 136 136" fill="none" xmlns="http://www.w3.org/2000/svg">
<path d="M106.418 70.9336L76.1957 59.7656L65.0629 29.5195C64.4036 27.7285 63.2108 26.1828 61.6455 25.0909C60.0801 23.9991 58.2175 23.4137 56.309 23.4137C54.4005 23.4137 52.5379 23.9991 50.9725 25.0909C49.4071 26.1828 48.2143 27.7285 47.5551 29.5195L36.3519 59.7656L6.10585 70.8984C4.31481 71.5577 2.76909 72.7505 1.67725 74.3159C0.585413 75.8812 0 77.7438 0 79.6523C0 81.5609 0.585413 83.4235 1.67725 84.9888C2.76909 86.5542 4.31481 87.747 6.10585 88.4062L36.3519 99.6094L47.4848 129.855C48.144 131.646 49.3368 133.192 50.9022 134.284C52.4675 135.376 54.3301 135.961 56.2387 135.961C58.1472 135.961 60.0098 135.376 61.5751 134.284C63.1405 133.192 64.3333 131.646 64.9926 129.855L76.1957 99.6094L106.442 88.4766C108.233 87.8173 109.779 86.6245 110.87 85.0591C111.962 83.4938 112.548 81.6312 112.548 79.7227C112.548 77.8141 111.962 75.9515 110.87 74.3862C109.779 72.8208 108.233 71.628 106.442 70.9688L106.418 70.9336ZM70.9223 91.5352C70.286 91.7697 69.7082 92.1394 69.2287 92.6189C68.7492 93.0984 68.3794 93.6762 68.1449 94.3125L56.2738 126.475L44.4262 94.3359C44.192 93.693 43.82 93.109 43.3361 92.6252C42.8523 92.1413 42.2684 91.7693 41.6254 91.5352L9.48671 79.6875L41.6254 67.8398C42.2684 67.6057 42.8523 67.2337 43.3361 66.7498C43.82 66.266 44.192 65.682 44.4262 65.0391L56.2738 32.9004L68.1215 65.0391C68.356 65.6753 68.7257 66.2532 69.2052 66.7327C69.6847 67.2122 70.2626 67.5819 70.8988 67.8164L103.061 79.6875L70.9223 91.5352ZM75.0238 18.75C75.0238 17.5068 75.5177 16.3145 76.3968 15.4354C77.2758 14.5564 78.4681 14.0625 79.7113 14.0625H89.0863V4.6875C89.0863 3.4443 89.5802 2.25201 90.4593 1.37294C91.3383 0.49386 92.5306 0 93.7738 0C95.017 0 96.2093 0.49386 97.0884 1.37294C97.9675 2.25201 98.4613 3.4443 98.4613 4.6875V14.0625H107.836C109.08 14.0625 110.272 14.5564 111.151 15.4354C112.03 16.3145 112.524 17.5068 112.524 18.75C112.524 19.9932 112.03 21.1855 111.151 22.0646C110.272 22.9436 109.08 23.4375 107.836 23.4375H98.4613V32.8125C98.4613 34.0557 97.9675 35.248 97.0884 36.1271C96.2093 37.0061 95.017 37.5 93.7738 37.5C92.5306 37.5 91.3383 37.0061 90.4593 36.1271C89.5802 35.248 89.0863 34.0557 89.0863 32.8125V23.4375H79.7113C78.4681 23.4375 77.2758 22.9436 76.3968 22.0646C75.5177 21.1855 75.0238 19.9932 75.0238 18.75ZM135.961 46.875C135.961 48.1182 135.467 49.3105 134.588 50.1896C133.709 51.0686 132.517 51.5625 131.274 51.5625H126.586V56.25C126.586 57.4932 126.092 58.6855 125.213 59.5646C124.334 60.4436 123.142 60.9375 121.899 60.9375C120.656 60.9375 119.463 60.4436 118.584 59.5646C117.705 58.6855 117.211 57.4932 117.211 56.25V51.5625H112.524C111.281 51.5625 110.088 51.0686 109.209 50.1896C108.33 49.3105 107.836 48.1182 107.836 46.875C107.836 45.6318 108.33 44.4395 109.209 43.5604C110.088 42.6814 111.281 42.1875 112.524 42.1875H117.211V37.5C117.211 36.2568 117.705 35.0645 118.584 34.1854C119.463 33.3064 120.656 32.8125 121.899 32.8125C123.142 32.8125 124.334 33.3064 125.213 34.1854C126.092 35.0645 126.586 36.2568 126.586 37.5V42.1875H131.274C132.517 42.1875 133.709 42.6814 134.588 43.5604C135.467 44.4395 135.961 45.6318 135.961 46.875Z" fill="#202123"/>
</svg>
